# Blender3D v248 OBJ File: palmtree.blend
# www.blender3d.org
mtllib palmtree.mtl
v 6.698128 3.873283 0.139053
v -4.854923 9.533734 0.150287
v 0.280917 10.157217 0.137993
v 4.131751 8.270490 0.096099
v 3.194014 6.526566 -2.496887
v -0.656821 8.413295 -2.454993
v 3.190559 6.528259 2.703793
v -0.660456 8.415075 2.697950
v 0.168860 10.212119 0.104294
v 4.019875 8.325304 0.110135
v 6.674488 3.884866 0.146127
v -4.877961 9.545021 0.014153
v -4.598024 9.502635 0.120456
v 0.766934 1.499230 -8.404600
v -0.470916 6.380989 -7.220574
v -2.225338 9.053189 -4.361945
v -0.291374 7.782965 -2.061836
v 1.463049 5.110762 -4.920465
v -4.880419 7.204628 -4.333186
v -3.168605 4.527215 -7.212696
v -0.432604 6.301770 -7.309875
v -2.144417 8.979181 -4.430363
v -4.466279 9.501859 0.163274
v 0.771370 1.482031 -8.425279
v -4.516497 9.258636 -0.061310
v -0.946652 12.447549 11.880251
v -1.761591 14.039323 7.025574
v -2.987749 12.984494 3.053888
v -5.710414 11.682776 4.293572
v -4.484257 12.737605 8.265261
v -0.826977 10.576587 3.076516
v 0.444351 11.621108 7.036709
v -1.712510 14.066915 7.137591
v -2.983839 13.022391 3.177399
v -4.638113 9.294188 -0.005307
v -0.932389 12.452497 11.902947
v -13.972100 3.263680 5.284986
v -4.592255 10.288388 -0.024044
v -9.192783 10.275709 2.342541
v -12.301921 7.936671 4.146034
v -10.057633 6.489127 6.020064
v -6.948495 8.828166 4.216571
v -12.417319 6.161437 1.397123
v -9.286350 8.503613 -0.364033
v -9.086448 10.345987 2.321089
v -12.217416 8.003813 4.082247
v -13.956109 3.277607 5.267858
v -4.511698 10.311030 0.086359
v -4.354925 9.229350 0.496618
v -11.370777 13.312743 -9.484241
v -8.638934 14.604295 -5.284875
v -6.268802 13.245635 -1.979282
v -4.412216 11.560905 -4.067094
v -6.782348 12.919564 -7.372689
v -8.654495 11.218767 -1.162124
v -11.063794 12.574180 -4.440624
v -8.719478 14.642817 -5.372889
v -6.310179 13.287404 -2.094391
v -4.257115 9.246549 0.400036
v -11.391177 13.320609 -9.500522
v -4.667796 9.545021 -0.076466
v -6.284896 3.884867 11.363005
v -5.907688 8.325305 8.735082
v -5.406462 10.212118 4.916821
v -7.871873 8.415075 3.760721
v -8.373101 6.528259 7.578984
v -2.762219 8.413294 4.427252
v -3.216084 6.526567 8.251477
v -5.908162 8.270491 8.847835
v -5.454298 10.157216 5.023610
v -4.805763 9.533733 -0.071133
v -6.280922 3.873284 11.387359
v -14.960675 0.992012 -4.192742
v -4.531487 10.254661 0.392814
v -9.918289 9.628377 -1.942594
v -13.411912 6.540733 -3.431125
v -13.223448 4.826125 -0.131228
v -9.729827 7.913770 1.357302
v -10.849590 4.861618 -5.571267
v -7.377565 7.949105 -4.032718
v -9.832545 9.718004 -1.862745
v -13.304570 6.630519 -3.401292
v -14.936121 1.011011 -4.190735
v -4.572757 10.272275 0.544417
v -4.714769 10.272275 0.147146
v 5.011881 1.011011 6.081221
v 3.485800 6.630519 5.103337
v 0.221399 9.718005 3.162777
v -2.474234 7.949106 5.025375
v 0.790166 4.861618 6.965937
v 0.502375 7.913770 -0.046632
v 3.794167 4.826125 1.846835
v 3.588832 6.540734 5.145725
v 0.297038 9.628378 3.252257
v -4.773777 10.254661 0.292764
v 5.036021 0.992013 6.086133
v -5.040797 9.372875 0.288438
v 5.630691 16.165075 0.418207
v 0.543889 16.213837 0.382817
v -3.013456 13.949656 0.377074
v -1.930673 12.332570 2.927413
v 1.626674 14.596753 2.933157
v -1.927316 12.334707 -2.139470
v 1.629864 14.598783 -2.180664
v 0.647234 16.279615 0.369015
v -2.909945 14.015537 0.410210
v -5.019516 9.386421 0.422299
v 5.652530 16.178976 0.411252
v -4.719242 9.216550 0.880191
v -10.458690 13.305445 1.207775
v -7.642580 13.180116 0.888565
v -5.731897 11.815514 0.758660
v -6.545206 10.843693 -0.504132
v -8.455891 12.208296 -0.374228
v -6.200810 11.056890 2.292293
v -8.108198 12.423390 2.448095
v -7.697134 13.220343 0.900048
v -5.789746 11.853841 0.744246
v -4.739816 9.219117 0.807111
v -10.469940 13.314115 1.212431
vt 0.895119 0.621840
vt 0.601104 0.939934
vt 0.399540 0.670516
vt 0.693554 0.352423
vt 1.028818 -0.008129
vt 0.068878 1.027109
vt 0.496177 0.078473
vt 1.028808 -0.016890
vt 0.697742 0.347891
vt 0.072019 1.022691
vt 0.202162 0.396567
vt 0.403727 0.665985
vn -0.344487 -0.716569 0.606513
vn 0.103516 -0.842264 0.529032
vn -0.726717 -0.418821 0.544492
vn 0.119816 -0.833582 -0.539245
vn -0.723692 -0.436972 -0.534159
vn -0.349066 -0.714325 -0.606541
vn -0.698914 -0.683645 0.210117
vn -0.804594 -0.324620 0.497244
vn -0.425984 -0.894481 -0.135799
vn 0.154991 -0.185830 0.970281
vn 0.518328 -0.779950 0.350735
vn 0.383862 -0.551270 0.740778
vn 0.463038 -0.881634 0.091199
vn 0.274639 -0.899089 -0.340900
vn 0.549242 -0.657065 0.516332
vn -0.748322 -0.655805 -0.099670
vn -0.468136 -0.444336 0.763816
vn -0.684834 -0.619739 0.383310
vn 0.126723 -0.705827 -0.696957
vn -0.214977 -0.880441 -0.422622
vn 0.450123 -0.360047 -0.817163
vn 0.254760 -0.806101 0.534133
vn 0.939965 -0.309995 0.142721
vn 0.681492 -0.626119 0.378870
vn -0.600855 -0.792416 0.105119
vn -0.276672 -0.853094 0.442362
vn -0.795083 -0.544084 -0.267986
vn 0.618719 -0.770434 -0.153685
vn 0.088020 -0.490478 -0.866997
vn 0.394469 -0.709957 -0.583400
vn 0.646408 -0.714325 -0.268133
vn 0.622823 -0.436972 -0.648958
vn 0.519350 -0.833582 0.188194
vn -0.446476 -0.418821 -0.790727
vn -0.537953 -0.842265 0.034596
vn -0.557155 -0.716569 -0.419652
vn 0.699211 -0.617272 -0.360664
vn 0.294525 -0.841019 -0.453809
vn 0.953583 -0.241468 -0.179927
vn -0.148524 -0.842118 0.518439
vn 0.523836 -0.265781 0.809294
vn 0.218318 -0.620744 0.753004
vn -0.127212 -0.620744 -0.773624
vn -0.423868 -0.265781 -0.865850
vn 0.209129 -0.842118 -0.497095
vn -0.968213 -0.241468 0.065239
vn -0.346406 -0.841019 0.415560
vn -0.737143 -0.617272 0.274947
vn 0.427597 -0.670275 -0.606541
vn -0.004387 -0.845373 -0.534159
vn 0.773806 -0.332323 -0.539245
vn -0.021454 -0.838491 0.544493
vn 0.772718 -0.350760 0.529032
vn 0.431899 -0.667537 0.606513
vn -0.379648 -0.598713 0.705273
vn 0.031934 -0.801922 0.596575
vn -0.716008 -0.248478 0.652373
vn -0.082996 -0.876890 -0.473472
vn -0.846642 -0.347011 -0.403460
vn -0.532416 -0.686728 -0.494912
usemtl Material_#25
s off
f 6/1/1 5/2/1 4/3/1 3/4/1
f 2/5/2 6/1/2 3/4/2
f 5/2/3 1/6/3 4/3/3
f 8/7/4 12/8/4 9/9/4
f 11/10/5 7/11/5 10/12/5
f 7/11/6 8/7/6 9/9/6 10/12/6
f 18/11/7 17/7/7 16/9/7 15/12/7
f 14/10/8 18/11/8 15/12/8
f 17/7/9 13/8/9 16/9/9
f 20/2/10 24/6/10 21/3/10
f 23/5/11 19/1/11 22/4/11
f 19/1/12 20/2/12 21/3/12 22/4/12
f 30/11/13 29/7/13 28/9/13 27/12/13
f 26/10/14 30/11/14 27/12/14
f 29/7/15 25/8/15 28/9/15
f 32/2/16 36/6/16 33/3/16
f 35/5/17 31/1/17 34/4/17
f 31/1/18 32/2/18 33/3/18 34/4/18
f 42/1/19 41/2/19 40/3/19 39/4/19
f 38/5/20 42/1/20 39/4/20
f 41/2/21 37/6/21 40/3/21
f 44/7/22 48/8/22 45/9/22
f 47/10/23 43/11/23 46/12/23
f 43/11/24 44/7/24 45/9/24 46/12/24
f 54/11/25 53/7/25 52/9/25 51/12/25
f 50/10/26 54/11/26 51/12/26
f 53/7/27 49/8/27 52/9/27
f 56/2/28 60/6/28 57/3/28
f 59/5/29 55/1/29 58/4/29
f 55/1/30 56/2/30 57/3/30 58/4/30
f 66/11/31 65/7/31 64/9/31 63/12/31
f 62/10/32 66/11/32 63/12/32
f 65/7/33 61/8/33 64/9/33
f 68/2/34 72/6/34 69/3/34
f 71/5/35 67/1/35 70/4/35
f 67/1/36 68/2/36 69/3/36 70/4/36
f 78/1/37 77/2/37 76/3/37 75/4/37
f 74/5/38 78/1/38 75/4/38
f 77/2/39 73/6/39 76/3/39
f 80/7/40 84/8/40 81/9/40
f 83/10/41 79/11/41 82/12/41
f 79/11/42 80/7/42 81/9/42 82/12/42
f 90/11/43 89/7/43 88/9/43 87/12/43
f 86/10/44 90/11/44 87/12/44
f 89/7/45 85/8/45 88/9/45
f 92/2/46 96/6/46 93/3/46
f 95/5/47 91/1/47 94/4/47
f 91/1/48 92/2/48 93/3/48 94/4/48
f 102/11/49 101/7/49 100/9/49 99/12/49
f 98/10/50 102/11/50 99/12/50
f 101/7/51 97/8/51 100/9/51
f 104/2/52 108/6/52 105/3/52
f 107/5/53 103/1/53 106/4/53
f 103/1/54 104/2/54 105/3/54 106/4/54
f 114/11/55 113/7/55 112/9/55 111/12/55
f 110/10/56 114/11/56 111/12/56
f 113/7/57 109/8/57 112/9/57
f 116/2/58 120/6/58 117/3/58
f 119/5/59 115/1/59 118/4/59
f 115/1/60 116/2/60 117/3/60 118/4/60
v -4.396949 9.446313 0.383608
v -4.287807 9.446892 0.310308
v -4.215026 9.447752 0.200821
v -4.189684 9.448762 0.071817
v -4.215641 9.449768 -0.057064
v -4.288944 9.450616 -0.166203
v -4.398434 9.451179 -0.238982
v -4.527442 9.451369 -0.264323
v -4.656327 9.451160 -0.238367
v -4.765469 9.450581 -0.165067
v -4.838251 9.449721 -0.055580
v -4.863592 9.448711 0.073424
v -4.837636 9.447705 0.202305
v -4.764332 9.446857 0.311444
v -4.654842 9.446295 0.384223
v -4.525835 9.446103 0.409564
v -5.272557 -8.665290 -0.096970
v -5.112119 -8.664444 -0.202667
v -5.004343 -8.663187 -0.361712
v -4.965637 -8.661712 -0.549894
v -5.001894 -8.660242 -0.738564
v -5.107594 -8.659002 -0.898997
v -5.266644 -8.658179 -1.006769
v -5.454832 -8.657901 -1.045474
v -5.643507 -8.658207 -1.009218
v -5.803945 -8.659053 -0.903522
v -5.911721 -8.660310 -0.744476
v -5.950426 -8.661785 -0.556294
v -5.914169 -8.663255 -0.367625
v -5.808469 -8.664495 -0.207192
v -5.649418 -8.665318 -0.099419
v -5.461230 -8.665596 -0.060715
v -4.526638 9.448736 0.072620
v -5.458032 -8.661748 -0.553095
vt 0.500000 -11.649921
vt 0.850372 -11.649890
vt 0.957782 -11.649903
vt 0.500000 12.649921
vt 0.957783 12.649937
vt 0.850372 12.649951
vt 0.995500 -11.649921
vt 0.995500 12.649921
vt 0.957782 -11.649937
vt 0.957782 12.649903
vt 0.850372 -11.649951
vt 0.850371 12.649890
vt 0.689620 -11.649960
vt 0.689619 12.649880
vt 0.500000 -11.649963
vt 0.499999 12.649877
vt 0.310380 -11.649960
vt 0.310379 12.649880
vt 0.149629 -11.649951
vt 0.149628 12.649890
vt 0.042218 -11.649937
vt 0.042217 12.649903
vt 0.004500 -11.649921
vt 0.004500 12.649921
vt 0.042218 -11.649903
vt 0.042218 12.649937
vt 0.149629 -11.649890
vt 0.149629 12.649951
vt 0.310381 -11.649880
vt 0.310382 12.649960
vt 0.500000 -11.649877
vt 0.500002 12.649963
vt 0.689620 -11.649880
vt 0.689621 12.649960
vn -0.000055 0.999969 0.007815
vn 0.000124 -0.999969 -0.007815
vn -0.000058 0.999969 0.007818
vn 0.000126 -0.999969 -0.007818
vn -0.000058 0.999969 0.007817
vn 0.000124 -0.999969 -0.007814
vn 0.000124 -0.999969 -0.007813
vn -0.000061 0.999969 0.007809
vn 0.000126 -0.999969 -0.007810
vn -0.000056 0.999969 0.007815
vn 0.000121 -0.999969 -0.007815
vn -0.000057 0.999969 0.007815
vn 0.000127 -0.999969 -0.007812
vn -0.000047 0.999969 0.007815
vn 0.000121 -0.999969 -0.007812
vn -0.000060 0.999969 0.007820
vn 0.000125 -0.999969 -0.007814
vn -0.000053 0.999969 0.007813
vn 0.000127 -0.999969 -0.007816
vn -0.000055 0.999969 0.007818
vn 0.000126 -0.999969 -0.007814
vn -0.000055 0.999969 0.007817
vn 0.000126 -0.999969 -0.007813
vn -0.000059 0.999969 0.007808
vn 0.000125 -0.999969 -0.007816
vn -0.000054 0.999969 0.007812
vn 0.000127 -0.999969 -0.007815
vn -0.000049 0.999969 0.007815
vn 0.000127 -0.999969 -0.007814
vn -0.000054 0.999969 0.007815
vn 0.000121 -0.999969 -0.007814
vn 0.552674 -0.048757 0.831970
vn 0.828862 -0.053459 0.556893
vn 0.979124 -0.048763 0.197326
vn 0.980678 -0.035374 -0.192407
vn 0.832912 -0.015306 -0.553193
vn 0.557968 0.008393 -0.829820
vn 0.197862 0.032089 -0.979705
vn -0.192069 0.052147 -0.979995
vn -0.552206 0.065518 -0.831129
vn -0.828061 0.070204 -0.556226
vn -0.978210 0.065516 -0.197008
vn -0.979931 0.052156 0.192391
vn -0.832518 0.032120 0.553066
vn -0.557908 0.008438 0.829860
vn -0.197915 -0.015266 0.980100
vn 0.192185 -0.035352 0.980722
usemtl Material_#26
s off
f 153/13/61 121/14/61 122/15/61
f 154/16/62 138/17/62 137/18/62
f 153/13/63 122/15/63 123/19/63
f 154/16/64 139/20/64 138/17/64
f 153/13/65 123/19/65 124/21/65
f 154/16/66 140/22/66 139/20/66
f 153/13/63 124/21/63 125/23/63
f 154/16/67 141/24/67 140/22/67
f 153/13/68 125/23/68 126/25/68
f 154/16/69 142/26/69 141/24/69
f 153/13/70 126/25/70 127/27/70
f 154/16/71 143/28/71 142/26/71
f 153/13/72 127/27/72 128/29/72
f 154/16/73 144/30/73 143/28/73
f 153/13/74 128/29/74 129/31/74
f 154/16/75 145/32/75 144/30/75
f 153/13/76 129/31/76 130/33/76
f 154/16/77 146/34/77 145/32/77
f 153/13/78 130/33/78 131/35/78
f 154/16/79 147/36/79 146/34/79
f 153/13/80 131/35/80 132/37/80
f 154/16/81 148/38/81 147/36/81
f 153/13/82 132/37/82 133/39/82
f 154/16/83 149/40/83 148/38/83
f 153/13/84 133/39/84 134/41/84
f 154/16/85 150/42/85 149/40/85
f 153/13/86 134/41/86 135/43/86
f 154/16/87 151/44/87 150/42/87
f 153/13/88 135/43/88 136/45/88
f 154/16/89 152/46/89 151/44/89
f 136/45/90 121/14/90 153/13/90
f 154/16/91 137/18/91 152/46/91
f 121/14/92 137/18/92 138/17/92 122/15/92
f 122/15/93 138/17/93 139/20/93 123/19/93
f 123/19/94 139/20/94 140/22/94 124/21/94
f 124/21/95 140/22/95 141/24/95 125/23/95
f 125/23/96 141/24/96 142/26/96 126/25/96
f 126/25/97 142/26/97 143/28/97 127/27/97
f 127/27/98 143/28/98 144/30/98 128/29/98
f 128/29/99 144/30/99 145/32/99 129/31/99
f 129/31/100 145/32/100 146/34/100 130/33/100
f 130/33/101 146/34/101 147/36/101 131/35/101
f 131/35/102 147/36/102 148/38/102 132/37/102
f 132/37/103 148/38/103 149/40/103 133/39/103
f 133/39/104 149/40/104 150/42/104 134/41/104
f 134/41/105 150/42/105 151/44/105 135/43/105
f 135/43/106 151/44/106 152/46/106 136/45/106
f 137/18/107 121/14/107 136/45/107 152/46/107

